# xmcd
#
# Track frame offsets:
#	150
#	12109
#	24238
#	36198
#	52363
#	60946
#	71960
#
# Disc length: 1116 seconds
#
# Revision: 1
# Processed by: cddbd v1.5.2PL0 Copyright (c) Steve Scherf et al.
# Submitted via: audiograbber 1.83.01
#
DISCID=59045a07
DTITLE=The Whiskeyjacks - The Whiskeyjacks
DYEAR=1900
DGENRE=Bluegrass
TTITLE0=You Ain't Talking to Me
TTITLE1=Farmer's Blues
TTITLE2=What Can't It Be Me
TTITLE3=Going to German
TTITLE4=Jacob Jackson Jr.
TTITLE5=Don't Get Trouble
TTITLE6=Minimum Wage
EXTD=
EXTT0=
EXTT1=
EXTT2=
EXTT3=
EXTT4=
EXTT5=
EXTT6=
PLAYORDER=
